<?xml version="1.0" encoding="UTF-8" standalone="no"?>
<!-- Created with Inkscape (http://www.inkscape.org/) -->

<svg
   xmlns:dc="http://purl.org/dc/elements/1.1/"
   xmlns:cc="http://creativecommons.org/ns#"
   xmlns:rdf="http://www.w3.org/1999/02/22-rdf-syntax-ns#"
   xmlns:svg="http://www.w3.org/2000/svg"
   xmlns="http://www.w3.org/2000/svg"
   xmlns:sodipodi="http://sodipodi.sourceforge.net/DTD/sodipodi-0.dtd"
   xmlns:inkscape="http://www.inkscape.org/namespaces/inkscape"
   version="1.1"
   id="svg2"
   width="299.73334"
   height="150.39999"
   viewBox="0 0 299.73334 150.39999"
   sodipodi:docname="llixhoot.svg"
   inkscape:version="0.92.3 (2405546, 2018-03-11)"
   inkscape:export-filename="/home/lliurex/git/llixhoot/install-files/icons/llixhoot.png"
   inkscape:export-xdpi="96"
   inkscape:export-ydpi="96">
  <metadata
     id="metadata8">
    <rdf:RDF>
      <cc:Work
         rdf:about="">
        <dc:format>image/svg+xml</dc:format>
        <dc:type
           rdf:resource="http://purl.org/dc/dcmitype/StillImage" />
      </cc:Work>
    </rdf:RDF>
  </metadata>
  <defs
     id="defs6">
    <filter
       inkscape:collect="always"
       style="color-interpolation-filters:sRGB"
       id="filter5135"
       x="-0.014982299"
       width="1.0299646"
       y="-0.060284901"
       height="1.1205698">
      <feGaussianBlur
         inkscape:collect="always"
         stdDeviation="0.37386441"
         id="feGaussianBlur5137" />
    </filter>
  </defs>
  <sodipodi:namedview
     pagecolor="#ffffff"
     bordercolor="#666666"
     borderopacity="1"
     objecttolerance="10"
     gridtolerance="10"
     guidetolerance="10"
     inkscape:pageopacity="0"
     inkscape:pageshadow="2"
     inkscape:window-width="1920"
     inkscape:window-height="926"
     id="namedview4"
     showgrid="false"
     inkscape:zoom="2"
     inkscape:cx="138.29573"
     inkscape:cy="75.114716"
     inkscape:window-x="0"
     inkscape:window-y="32"
     inkscape:window-maximized="1"
     inkscape:current-layer="flowRoot5569" />
  <rect
     style="fill:#aade87;fill-opacity:1;stroke:none;stroke-opacity:1"
     id="rect4942"
     width="299.80798"
     height="151.3882"
     x="0.29683959"
     y="-0.097686768"
     inkscape:export-xdpi="96"
     inkscape:export-ydpi="96" />
  <path
     style="fill:none;fill-rule:evenodd;stroke:#000000;stroke-width:1px;stroke-linecap:butt;stroke-linejoin:miter;stroke-opacity:1"
     d="m -491.99926,-189.63362 -7.5563,-3.35836"
     id="path3766"
     inkscape:connector-type="polyline"
     inkscape:connector-curvature="0" />
  <g
     id="g4852"
     transform="matrix(0.73230338,0,0,0.73230338,10.61439,32.145982)"
     inkscape:export-xdpi="96"
     inkscape:export-ydpi="96">
    <g
       inkscape:export-ydpi="96"
       inkscape:export-xdpi="96"
       transform="matrix(0.93953488,0,0,1,-1.8984684,0)"
       id="g4630">
      <ellipse
         style="fill:#ff5555"
         id="path3751"
         cx="91.935013"
         cy="75.25676"
         rx="90.255836"
         ry="74.303642" />
      <path
         sodipodi:type="star"
         style="fill:#00ffff"
         id="path3768"
         sodipodi:sides="4"
         sodipodi:cx="87.396233"
         sodipodi:cy="77.355736"
         sodipodi:r1="66.114647"
         sodipodi:r2="0.66114646"
         sodipodi:arg1="0.86630226"
         sodipodi:arg2="1.6517004"
         inkscape:flatsided="false"
         inkscape:rounded="0"
         inkscape:randomized="0"
         d="M 130.21528,127.73108 87.342801,78.01472 37.020884,120.17478 86.737249,77.302305 44.577186,26.980387 87.449664,76.696752 137.77158,34.536689 88.055216,77.409167 Z"
         inkscape:transform-center-x="2.262706"
         inkscape:transform-center-y="-6.0737146"
         transform="matrix(1.4553057,0,0,1.2610554,-37.404907,-23.974329)" />
      <path
         style="fill:#ffe680;stroke-width:0.83958918"
         d="m 75.730944,147.92939 c -13.574664,-2.08344 -27.943639,-7.3572 -38.66872,-14.19235 -5.786078,-3.6875 -12.966015,-9.5152 -12.966015,-10.52406 0,-0.66968 63.047631,-46.767875 64.965108,-47.500183 0.518454,-0.198004 13.936553,12.639351 29.818003,28.527453 l 28.87537,28.88746 -3.61242,2.28042 c -17.47412,11.03093 -45.135085,16.09369 -68.411326,12.52126 z"
         id="path3770"
         inkscape:connector-curvature="0" />
      <path
         style="fill:#d3bc5f;stroke-width:0.83958918"
         d="M 19.165125,118.52842 C -1.5106627,95.039488 -3.4298783,62.996421 14.347614,38.095644 c 3.683223,-5.159058 15.684357,-17.214248 18.79363,-18.878281 1.645018,-0.880386 10.09995,7.43445 50.842345,49.9999 l 4.158154,4.344214 -31.812869,23.686561 C 38.831796,110.27565 24.08582,121.27225 23.560041,121.68494 c -0.634796,0.49826 -2.111322,-0.56222 -4.394916,-3.15652 z"
         id="path3772"
         inkscape:connector-curvature="0" />
      <path
         style="fill:#87aade;stroke-width:0.83958918"
         d="M 120.01927,103.42739 C 104.66529,87.508902 92.102933,74.184134 92.102933,73.816797 c 0,-0.367336 14.714617,-11.667229 32.699147,-25.110872 l 32.69914,-24.442989 5.00978,5.355469 c 8.7051,9.30578 14.50823,19.478938 17.47638,30.636905 1.98275,7.453667 1.95505,22.843146 -0.0543,30.17664 -3.20625,11.70167 -9.67593,22.74523 -18.51033,31.59663 -4.82232,4.83161 -11.88818,10.48416 -12.98337,10.38646 -0.27706,-0.0247 -13.06609,-13.06915 -28.42008,-28.98765 z"
         id="path3774"
         inkscape:connector-curvature="0" />
    </g>
    <g
       inkscape:export-ydpi="96"
       inkscape:export-xdpi="96"
       transform="translate(431.54884,107.46742)"
       id="flowRoot4718"
       style="font-style:normal;font-variant:normal;font-weight:normal;font-stretch:normal;font-size:40px;line-height:1.25;font-family:Rufscript;-inkscape-font-specification:Rufscript;letter-spacing:0px;word-spacing:0px;fill:#000000;fill-opacity:1;stroke:none"
       aria-label="?">
      <path
         inkscape:connector-curvature="0"
         id="path4726"
         d="m -342.99609,-89.134766 q 5.2539,1.054688 5.2539,4.375 0,2.910157 -4.08203,7.578125 -4.72656,5.410157 -4.72656,8.066407 0,0.3125 0.0586,0.605468 0.44922,1.738282 0.44922,2.695313 0,1.152344 -0.64453,1.152344 -0.0195,0 -0.0391,0 -2.71485,-0.214844 -2.79297,-0.546875 -0.19531,-0.898438 -0.19531,-1.738282 0,-1.230468 0.41015,-2.382812 0.58594,-1.5625 6.6211,-10.722656 1.25,-1.894532 1.25,-3.066407 0,-1.503906 -1.97266,-1.875 -0.19531,-0.03906 -0.41016,-0.03906 -2.1875,0 -8.16406,3.203125 -0.15625,0.07813 -0.3125,0.07813 -0.76172,0 -1.99219,-1.503906 0,-0.01953 0,-0.05859 0,-0.234375 0.64454,-1.015625 0.58593,-0.625 2.1875,-1.640625 1.69921,-1.054688 1.8164,-1.152344 1.23047,-1.171875 3.65235,-1.816406 1.09375,-0.273438 2.01171,-0.273438 0.52735,0 0.97657,0.07813 z m -2.89063,31.640625 q -0.83984,0.703125 -1.54297,0.703125 -0.23437,0 -0.42968,-0.05859 -0.87891,-0.292969 -1.67969,-1.289063 -0.80078,-0.996094 -0.80078,-1.679687 0,-0.703125 1.1914,-1.855469 1.01563,-0.976563 1.89453,-0.976563 0.15625,0 0.29297,0.03906 2.1875,0.46875 2.1875,2.890625 0,1.289062 -1.11328,2.226562 z" />
    </g>
    <g
       inkscape:export-ydpi="96"
       inkscape:export-xdpi="96"
       transform="translate(426.8122,186.0574)"
       id="flowRoot4718-8"
       style="font-style:normal;font-variant:normal;font-weight:normal;font-stretch:normal;font-size:40px;line-height:1.25;font-family:Rufscript;-inkscape-font-specification:Rufscript;letter-spacing:0px;word-spacing:0px;fill:#000000;fill-opacity:1;stroke:none"
       aria-label="?">
      <path
         inkscape:connector-curvature="0"
         id="path4726-9"
         d="m -342.99609,-89.134766 q 5.2539,1.054688 5.2539,4.375 0,2.910157 -4.08203,7.578125 -4.72656,5.410157 -4.72656,8.066407 0,0.3125 0.0586,0.605468 0.44922,1.738282 0.44922,2.695313 0,1.152344 -0.64453,1.152344 -0.0195,0 -0.0391,0 -2.71485,-0.214844 -2.79297,-0.546875 -0.19531,-0.898438 -0.19531,-1.738282 0,-1.230468 0.41015,-2.382812 0.58594,-1.5625 6.6211,-10.722656 1.25,-1.894532 1.25,-3.066407 0,-1.503906 -1.97266,-1.875 -0.19531,-0.03906 -0.41016,-0.03906 -2.1875,0 -8.16406,3.203125 -0.15625,0.07813 -0.3125,0.07813 -0.76172,0 -1.99219,-1.503906 0,-0.01953 0,-0.05859 0,-0.234375 0.64454,-1.015625 0.58593,-0.625 2.1875,-1.640625 1.69921,-1.054688 1.8164,-1.152344 1.23047,-1.171875 3.65235,-1.816406 1.09375,-0.273438 2.01171,-0.273438 0.52735,0 0.97657,0.07813 z m -2.89063,31.640625 q -0.83984,0.703125 -1.54297,0.703125 -0.23437,0 -0.42968,-0.05859 -0.87891,-0.292969 -1.67969,-1.289063 -0.80078,-0.996094 -0.80078,-1.679687 0,-0.703125 1.1914,-1.855469 1.01563,-0.976563 1.89453,-0.976563 0.15625,0 0.29297,0.03906 2.1875,0.46875 2.1875,2.890625 0,1.289062 -1.11328,2.226562 z" />
    </g>
    <g
       inkscape:export-ydpi="96"
       inkscape:export-xdpi="96"
       transform="translate(380.8122,146.0574)"
       id="flowRoot4718-8-0"
       style="font-style:normal;font-variant:normal;font-weight:normal;font-stretch:normal;font-size:40px;line-height:1.25;font-family:Rufscript;-inkscape-font-specification:Rufscript;letter-spacing:0px;word-spacing:0px;fill:#000000;fill-opacity:1;stroke:none"
       aria-label="?">
      <path
         inkscape:connector-curvature="0"
         id="path4726-9-2"
         d="m -342.99609,-89.134766 q 5.2539,1.054688 5.2539,4.375 0,2.910157 -4.08203,7.578125 -4.72656,5.410157 -4.72656,8.066407 0,0.3125 0.0586,0.605468 0.44922,1.738282 0.44922,2.695313 0,1.152344 -0.64453,1.152344 -0.0195,0 -0.0391,0 -2.71485,-0.214844 -2.79297,-0.546875 -0.19531,-0.898438 -0.19531,-1.738282 0,-1.230468 0.41015,-2.382812 0.58594,-1.5625 6.6211,-10.722656 1.25,-1.894532 1.25,-3.066407 0,-1.503906 -1.97266,-1.875 -0.19531,-0.03906 -0.41016,-0.03906 -2.1875,0 -8.16406,3.203125 -0.15625,0.07813 -0.3125,0.07813 -0.76172,0 -1.99219,-1.503906 0,-0.01953 0,-0.05859 0,-0.234375 0.64454,-1.015625 0.58593,-0.625 2.1875,-1.640625 1.69921,-1.054688 1.8164,-1.152344 1.23047,-1.171875 3.65235,-1.816406 1.09375,-0.273438 2.01171,-0.273438 0.52735,0 0.97657,0.07813 z m -2.89063,31.640625 q -0.83984,0.703125 -1.54297,0.703125 -0.23437,0 -0.42968,-0.05859 -0.87891,-0.292969 -1.67969,-1.289063 -0.80078,-0.996094 -0.80078,-1.679687 0,-0.703125 1.1914,-1.855469 1.01563,-0.976563 1.89453,-0.976563 0.15625,0 0.29297,0.03906 2.1875,0.46875 2.1875,2.890625 0,1.289062 -1.11328,2.226562 z" />
    </g>
    <g
       inkscape:export-ydpi="96"
       inkscape:export-xdpi="96"
       transform="translate(480.38195,146.11902)"
       id="flowRoot4718-8-0-4"
       style="font-style:normal;font-variant:normal;font-weight:normal;font-stretch:normal;font-size:40px;line-height:1.25;font-family:Rufscript;-inkscape-font-specification:Rufscript;letter-spacing:0px;word-spacing:0px;fill:#000000;fill-opacity:1;stroke:none"
       aria-label="?">
      <path
         inkscape:connector-curvature="0"
         id="path4726-9-2-7"
         d="m -342.99609,-89.134766 q 5.2539,1.054688 5.2539,4.375 0,2.910157 -4.08203,7.578125 -4.72656,5.410157 -4.72656,8.066407 0,0.3125 0.0586,0.605468 0.44922,1.738282 0.44922,2.695313 0,1.152344 -0.64453,1.152344 -0.0195,0 -0.0391,0 -2.71485,-0.214844 -2.79297,-0.546875 -0.19531,-0.898438 -0.19531,-1.738282 0,-1.230468 0.41015,-2.382812 0.58594,-1.5625 6.6211,-10.722656 1.25,-1.894532 1.25,-3.066407 0,-1.503906 -1.97266,-1.875 -0.19531,-0.03906 -0.41016,-0.03906 -2.1875,0 -8.16406,3.203125 -0.15625,0.07813 -0.3125,0.07813 -0.76172,0 -1.99219,-1.503906 0,-0.01953 0,-0.05859 0,-0.234375 0.64454,-1.015625 0.58593,-0.625 2.1875,-1.640625 1.69921,-1.054688 1.8164,-1.152344 1.23047,-1.171875 3.65235,-1.816406 1.09375,-0.273438 2.01171,-0.273438 0.52735,0 0.97657,0.07813 z m -2.89063,31.640625 q -0.83984,0.703125 -1.54297,0.703125 -0.23437,0 -0.42968,-0.05859 -0.87891,-0.292969 -1.67969,-1.289063 -0.80078,-0.996094 -0.80078,-1.679687 0,-0.703125 1.1914,-1.855469 1.01563,-0.976563 1.89453,-0.976563 0.15625,0 0.29297,0.03906 2.1875,0.46875 2.1875,2.890625 0,1.289062 -1.11328,2.226562 z" />
    </g>
  </g>
  <path
     style="fill:#0000ff;fill-opacity:1;stroke:none;stroke-width:0.59367919;stroke-opacity:1"
     d=""
     id="path4924"
     inkscape:connector-curvature="0" />
  <path
     style="fill:#0000ff;fill-opacity:1;stroke:none;stroke-width:0.59367919;stroke-opacity:1"
     d=""
     id="path4926"
     inkscape:connector-curvature="0" />
  <path
     style="fill:#0000ff;fill-opacity:1;stroke:none;stroke-width:0.29683959;stroke-opacity:1"
     d=""
     id="path4934"
     inkscape:connector-curvature="0" />
  <path
     style="fill:#0000ff;fill-opacity:1;stroke:none;stroke-width:0.29683959;stroke-opacity:1"
     d=""
     id="path4938"
     inkscape:connector-curvature="0" />
  <path
     style="fill:#0000ff;fill-opacity:1;stroke:none;stroke-width:0.29683959;stroke-opacity:1"
     d=""
     id="path4940"
     inkscape:connector-curvature="0" />
  <path
     style="fill:#217821;fill-opacity:1;stroke:#000000;stroke-width:0.18285319;stroke-miterlimit:4;stroke-dasharray:none;stroke-opacity:1"
     d="M 166.29447,83.892583 C 128.09121,46.973333 92.965273,13.057769 88.236829,8.5246622 L 79.639659,0.28265065 H 189.90439 300.16913 V 75.679909 151.07717 l -32.2071,-0.0293 -32.2071,-0.0293 -69.46046,-67.12591 z"
     id="path5459"
     inkscape:connector-curvature="0"
     inkscape:export-xdpi="96"
     inkscape:export-ydpi="96" />
  <g
     aria-label="LliureX"
     style="font-style:normal;font-variant:normal;font-weight:normal;font-stretch:normal;font-size:19.32974243px;line-height:1.25;font-family:mry_KacstQurn;-inkscape-font-specification:mry_KacstQurn;letter-spacing:0px;word-spacing:0px;fill:#000000;fill-opacity:1;stroke:none;stroke-width:1.2081089;filter:url(#filter5135)"
     id="text4965"
     inkscape:export-xdpi="96"
     inkscape:export-ydpi="96"
     transform="matrix(0.85903932,0.79873192,-0.82348004,0.83322253,5.409395,-156.45912)"
     inkscape:transform-center-x="0.42765748"
     inkscape:transform-center-y="-2.158573">
    <path
       d="M 200.01225,54.104836 V 40.303399 h 1.73968 v 12.255057 h 6.03088 v 1.54638 z"
       style="fill:#000000;stroke-width:1.2081089"
       id="path5039"
       inkscape:connector-curvature="0" />
    <path
       d="m 211.59923,54.104836 h -1.70102 V 39.414231 h 1.70102 z"
       style="fill:#000000;stroke-width:1.2081089"
       id="path5041"
       inkscape:connector-curvature="0" />
    <path
       d="m 215.7515,39.858815 q 0.38659,0 0.67654,0.270617 0.30927,0.251286 0.30927,0.811849 0,0.560562 -0.30927,0.831179 -0.28995,0.251286 -0.67654,0.251286 -0.42526,0 -0.7152,-0.251286 -0.28995,-0.270617 -0.28995,-0.831179 0,-0.560563 0.28995,-0.811849 0.28994,-0.270617 0.7152,-0.270617 z m 0.83117,3.885279 v 10.360742 h -1.70101 V 43.744094 Z"
       style="fill:#000000;stroke-width:1.2081089"
       id="path5043"
       inkscape:connector-curvature="0" />
    <path
       d="m 228.52483,43.744094 v 10.360742 h -1.39174 l -0.25129,-1.372412 h -0.0773 q -0.50257,0.811849 -1.39174,1.198444 -0.88917,0.367265 -1.89431,0.367265 -1.87499,0 -2.82214,-0.889168 -0.94716,-0.908498 -0.94716,-2.880132 v -6.784739 h 1.72035 v 6.668761 q 0,2.474207 2.30023,2.474207 1.72035,0 2.37756,-0.966487 0.67654,-0.966488 0.67654,-2.783483 v -5.392998 z"
       style="fill:#000000;stroke-width:1.2081089"
       id="path5045"
       inkscape:connector-curvature="0" />
    <path
       d="m 236.62762,43.550796 q 0.28994,0 0.61855,0.03866 0.3286,0.01933 0.59922,0.07732 l -0.21263,1.565709 q -0.25128,-0.05799 -0.56056,-0.09665 -0.30928,-0.03866 -0.56056,-0.03866 -0.79252,0 -1.48839,0.444584 -0.69587,0.425254 -1.12113,1.217773 -0.40592,0.77319 -0.40592,1.816996 v 5.528307 h -1.70102 V 43.744094 h 1.39174 l 0.1933,1.894314 h 0.0773 q 0.48324,-0.850508 1.27576,-1.46906 0.81185,-0.618552 1.89432,-0.618552 z"
       style="fill:#000000;stroke-width:1.2081089"
       id="path5047"
       inkscape:connector-curvature="0" />
    <path
       d="m 243.38487,43.550796 q 1.31443,0 2.28091,0.579892 0.96649,0.579893 1.46906,1.643029 0.52191,1.043806 0.52191,2.454877 v 1.024476 h -7.09402 q 0.0387,1.759007 0.88917,2.686834 0.86984,0.908498 2.41622,0.908498 0.98581,0 1.73967,-0.173967 0.77319,-0.193298 1.58504,-0.541233 v 1.48839 q -0.79252,0.347935 -1.56571,0.502573 -0.77319,0.173968 -1.83632,0.173968 -1.48839,0 -2.60952,-0.599222 -1.12112,-0.599222 -1.759,-1.778336 -0.61856,-1.179115 -0.61856,-2.918791 0,-1.701018 0.56057,-2.918792 0.57989,-1.217773 1.60437,-1.874985 1.0438,-0.657211 2.41621,-0.657211 z m -0.0193,1.391742 q -1.21777,0 -1.93297,0.792519 -0.69587,0.77319 -0.83118,2.164931 h 5.27702 q -0.0193,-1.314422 -0.61855,-2.126271 -0.59922,-0.831179 -1.89432,-0.831179 z"
       style="fill:#000000;stroke-width:1.2081089"
       id="path5049"
       inkscape:connector-curvature="0" />
    <path
       d="m 259.90123,54.104836 h -1.97163 l -3.65332,-5.992221 -3.71131,5.992221 h -1.83633 l 4.58115,-7.190665 -4.2912,-6.610772 h 1.93297 l 3.38271,5.412328 3.40203,-5.412328 h 1.83633 l -4.27188,6.572113 z"
       style="fill:#000000;stroke-width:1.2081089"
       id="path5051"
       inkscape:connector-curvature="0" />
  </g>
  <g
     id="text4965-4"
     style="font-style:normal;font-variant:normal;font-weight:normal;font-stretch:normal;font-size:19.32974243px;line-height:1.25;font-family:mry_KacstQurn;-inkscape-font-specification:mry_KacstQurn;letter-spacing:0px;word-spacing:0px;fill:#ffffff;fill-opacity:1;stroke:#000000;stroke-width:0.308;stroke-miterlimit:4;stroke-dasharray:none;stroke-opacity:1"
     aria-label="LliureX"
     inkscape:export-xdpi="96"
     inkscape:export-ydpi="96"
     transform="matrix(0.85903932,0.79873192,-0.82348004,0.83322253,3.409395,-156.45912)"
     inkscape:transform-center-x="0.14036148"
     inkscape:transform-center-y="-3.6962702">
    <path
       inkscape:connector-curvature="0"
       id="path5024"
       style="fill:#ffffff;stroke:#000000;stroke-width:0.308;stroke-miterlimit:4;stroke-dasharray:none;stroke-opacity:1"
       d="M 199.26462,52.976036 V 39.1746 h 1.73968 v 12.255057 h 6.03087 v 1.546379 z" />
    <path
       inkscape:connector-curvature="0"
       id="path5026"
       style="fill:#ffffff;stroke:#000000;stroke-width:0.308;stroke-miterlimit:4;stroke-dasharray:none;stroke-opacity:1"
       d="m 210.85159,52.976036 h -1.70102 V 38.285432 h 1.70102 z" />
    <path
       inkscape:connector-curvature="0"
       id="path5028"
       style="fill:#ffffff;stroke:#000000;stroke-width:0.308;stroke-miterlimit:4;stroke-dasharray:none;stroke-opacity:1"
       d="m 215.00386,38.730016 q 0.3866,0 0.67654,0.270616 0.30928,0.251287 0.30928,0.811849 0,0.560563 -0.30928,0.831179 -0.28994,0.251287 -0.67654,0.251287 -0.42525,0 -0.7152,-0.251287 -0.28995,-0.270616 -0.28995,-0.831179 0,-0.560562 0.28995,-0.811849 0.28995,-0.270616 0.7152,-0.270616 z m 0.83118,3.885278 v 10.360742 h -1.70102 V 42.615294 Z" />
    <path
       inkscape:connector-curvature="0"
       id="path5030"
       style="fill:#ffffff;stroke:#000000;stroke-width:0.308;stroke-miterlimit:4;stroke-dasharray:none;stroke-opacity:1"
       d="m 227.7772,42.615294 v 10.360742 h -1.39175 l -0.25128,-1.372412 h -0.0773 q -0.50257,0.81185 -1.39174,1.198444 -0.88917,0.367265 -1.89432,0.367265 -1.87498,0 -2.82214,-0.889168 -0.94716,-0.908498 -0.94716,-2.880131 v -6.78474 h 1.72035 v 6.668761 q 0,2.474207 2.30024,2.474207 1.72035,0 2.37756,-0.966487 0.67654,-0.966487 0.67654,-2.783483 v -5.392998 z" />
    <path
       inkscape:connector-curvature="0"
       id="path5032"
       style="fill:#ffffff;stroke:#000000;stroke-width:0.308;stroke-miterlimit:4;stroke-dasharray:none;stroke-opacity:1"
       d="m 235.87998,42.421997 q 0.28995,0 0.61855,0.03866 0.32861,0.01933 0.59923,0.07732 l -0.21263,1.565709 q -0.25129,-0.05799 -0.56056,-0.09665 -0.30928,-0.03866 -0.56057,-0.03866 -0.79252,0 -1.48839,0.444584 -0.69587,0.425255 -1.12112,1.217774 -0.40593,0.77319 -0.40593,1.816996 v 5.528306 h -1.70101 V 42.615294 h 1.39174 l 0.1933,1.894315 h 0.0773 q 0.48325,-0.850509 1.27577,-1.469061 0.81185,-0.618551 1.89431,-0.618551 z" />
    <path
       inkscape:connector-curvature="0"
       id="path5034"
       style="fill:#ffffff;stroke:#000000;stroke-width:0.308;stroke-miterlimit:4;stroke-dasharray:none;stroke-opacity:1"
       d="m 242.63724,42.421997 q 1.31442,0 2.28091,0.579892 0.96649,0.579892 1.46906,1.643028 0.5219,1.043806 0.5219,2.454877 v 1.024477 h -7.09401 q 0.0387,1.759006 0.88916,2.686834 0.86984,0.908498 2.41622,0.908498 0.98582,0 1.73968,-0.173968 0.77319,-0.193297 1.58504,-0.541233 v 1.488391 q -0.79252,0.347935 -1.56571,0.502573 -0.77319,0.173967 -1.83633,0.173967 -1.48839,0 -2.60951,-0.599222 -1.12113,-0.599222 -1.75901,-1.778336 -0.61855,-1.179114 -0.61855,-2.918791 0,-1.701017 0.56056,-2.918791 0.57989,-1.217774 1.60437,-1.874985 1.04381,-0.657211 2.41622,-0.657211 z m -0.0193,1.391741 q -1.21777,0 -1.93297,0.79252 -0.69588,0.773189 -0.83118,2.164931 h 5.27702 q -0.0193,-1.314423 -0.61856,-2.126272 -0.59922,-0.831179 -1.89431,-0.831179 z" />
    <path
       inkscape:connector-curvature="0"
       id="path5036"
       style="fill:#ffffff;stroke:#000000;stroke-width:0.308;stroke-miterlimit:4;stroke-dasharray:none;stroke-opacity:1"
       d="m 259.1536,52.976036 h -1.97164 l -3.65332,-5.99222 -3.71131,5.99222 h -1.83632 l 4.58114,-7.190664 -4.2912,-6.610772 h 1.93298 l 3.3827,5.412328 3.40204,-5.412328 h 1.83632 l -4.27187,6.572112 z" />
  </g>
  <g
     aria-label="HooT"
     transform="rotate(-46.272026,304.48911,-104.28225)"
     style="font-style:normal;font-variant:normal;font-weight:normal;font-stretch:normal;font-size:40px;line-height:1.25;font-family:'Ubuntu Condensed';-inkscape-font-specification:'Ubuntu Condensed, ';letter-spacing:-6px;word-spacing:0px;fill:#cdde87;fill-opacity:1;stroke:#000000;stroke-opacity:1"
     id="flowRoot5569">
    <path
       d="m 100.016,-50.217526 h 6.72 V 1.5264722 h -6.72 V -22.516194 H 82.992 V 1.5264722 h -6.72 V -50.217526 h 6.72 v 21.877333 h 17.024 z"
       style="font-style:normal;font-variant:normal;font-weight:normal;font-stretch:normal;font-size:74.66666412px;font-family:'Ubuntu Condensed';-inkscape-font-specification:'Ubuntu Condensed, ';letter-spacing:-4px;fill:#cdde87;fill-opacity:1;stroke:#000000;stroke-opacity:1"
       id="path5600" />
    <path
       d="m 131.15416,-12.446861 q 0,3.3066668 -0.58666,6.0266667 -0.58667,2.6666666 -1.81334,4.5866666 -1.17333,1.91999993 -3.04,2.9866666 -1.81333,1.0666666 -4.31999,1.0666666 -2.50667,0 -4.37334,-1.0666666 -1.86666,-1.06666667 -3.09333,-2.9866666 -1.17333,-1.92 -1.76,-4.5866666 -0.58667,-2.7199999 -0.58667,-6.0266667 0,-3.253333 0.58667,-5.973333 0.58667,-2.72 1.76,-4.64 1.22667,-1.973333 3.09333,-3.04 1.86667,-1.066666 4.37334,-1.066666 2.50666,0 4.31999,1.066666 1.86667,1.066667 3.04,3.04 1.22667,1.92 1.81334,4.64 0.58666,2.72 0.58666,5.973333 z m -4.8,0 q 0,-2.346666 -0.26666,-4.266666 -0.26667,-1.973334 -0.85333,-3.36 -0.58667,-1.44 -1.54667,-2.186667 -0.96,-0.8 -2.29333,-0.8 -1.38667,0 -2.34667,0.8 -0.90667,0.746667 -1.54667,2.186667 -0.58666,1.386666 -0.85333,3.36 -0.26667,1.92 -0.26667,4.266666 0,2.346667 0.26667,4.3200001 0.26667,1.9199999 0.85333,3.3066666 0.64,1.3866666 1.54667,2.1866666 0.96,0.7466666 2.34667,0.7466666 1.33333,0 2.29333,-0.7466666 0.96,-0.8 1.54667,-2.1866666 0.58666,-1.3866667 0.85333,-3.3066666 0.26666,-1.9733331 0.26666,-4.3200001 z"
       style="font-style:normal;font-variant:normal;font-weight:normal;font-stretch:normal;font-size:53.33333206px;font-family:'Ubuntu Condensed';-inkscape-font-specification:'Ubuntu Condensed, ';letter-spacing:-4px;fill:#cdde87;fill-opacity:1;stroke:#000000;stroke-opacity:1"
       id="path5602" />
    <path
       d="m 154.66939,-12.384073 q 0,3.3066677 -0.58666,6.0266676 -0.58667,2.6666666 -1.81334,4.5866666 -1.17333,1.91999988 -3.04,2.9866666 -1.81333,1.0666666 -4.31999,1.0666666 -2.50667,0 -4.37334,-1.0666666 -1.86666,-1.06666672 -3.09333,-2.9866666 -1.17333,-1.92 -1.76,-4.5866666 -0.58667,-2.7199999 -0.58667,-6.0266676 0,-3.253333 0.58667,-5.973333 0.58667,-2.72 1.76,-4.64 1.22667,-1.973333 3.09333,-3.04 1.86667,-1.066666 4.37334,-1.066666 2.50666,0 4.31999,1.066666 1.86667,1.066667 3.04,3.04 1.22667,1.92 1.81334,4.64 0.58666,2.72 0.58666,5.973333 z m -4.8,0 q 0,-2.346666 -0.26666,-4.266666 -0.26667,-1.973334 -0.85333,-3.36 -0.58667,-1.44 -1.54667,-2.186667 -0.96,-0.8 -2.29333,-0.8 -1.38667,0 -2.34667,0.8 -0.90667,0.746667 -1.54667,2.186667 -0.58666,1.386666 -0.85333,3.36 -0.26667,1.92 -0.26667,4.266666 0,2.346668 0.26667,4.320001 0.26667,1.9199999 0.85333,3.3066666 0.64,1.3866666 1.54667,2.1866666 0.96,0.7466666 2.34667,0.7466666 1.33333,0 2.29333,-0.7466666 0.96,-0.8 1.54667,-2.1866666 0.58666,-1.3866667 0.85333,-3.3066666 0.26666,-1.973333 0.26666,-4.320001 z"
       style="font-style:normal;font-variant:normal;font-weight:normal;font-stretch:normal;font-size:53.33333206px;font-family:'Ubuntu Condensed';-inkscape-font-specification:'Ubuntu Condensed, ';letter-spacing:-4px;fill:#cdde87;fill-opacity:1;stroke:#000000;stroke-opacity:1"
       id="path5604"
       inkscape:connector-curvature="0" />
    <path
       d="m 181.15849,-50.217526 v 5.749333 H 169.65983 V 1.5264722 h -6.72 V -44.468193 h -11.49867 v -5.749333 z"
       style="font-style:normal;font-variant:normal;font-weight:normal;font-stretch:normal;font-size:74.66666412px;font-family:'Ubuntu Condensed';-inkscape-font-specification:'Ubuntu Condensed, ';letter-spacing:-4px;fill:#cdde87;fill-opacity:1;stroke:#000000;stroke-opacity:1"
       id="path5606" />
  </g>
</svg>
